<?xml version="1.0" standalone="no"?>
<!DOCTYPE svg PUBLIC "-//W3C//DTD SVG 20010904//EN"
 "http://www.w3.org/TR/2001/REC-SVG-20010904/DTD/svg10.dtd">
<svg version="1.0" xmlns="http://www.w3.org/2000/svg"
 width="512.000000pt" height="512.000000pt" viewBox="0 0 512.000000 512.000000"
 preserveAspectRatio="xMidYMid meet">

<g transform="translate(0.000000,512.000000) scale(0.100000,-0.100000)"
fill="#000000" stroke="none">
<path d="M1000 3701 c-168 -36 -286 -98 -388 -206 -80 -84 -112 -141 -147
-260 -88 -301 -10 -650 194 -868 63 -68 68 -67 81 16 79 487 259 904 540 1250
l70 87 -132 -1 c-87 0 -162 -7 -218 -18z"/>
<path d="M3839 3634 c281 -346 462 -766 541 -1251 7 -40 15 -73 19 -73 9 0 78
73 123 130 152 193 209 533 133 795 -37 125 -68 178 -160 271 -63 64 -98 90
-165 123 -130 63 -218 83 -404 88 l-158 5 71 -88z"/>
<path d="M1718 2500 c-94 -28 -153 -108 -153 -205 2 -199 234 -289 372 -144
41 43 53 77 53 145 0 142 -138 245 -272 204z"/>
<path d="M3272 2497 c-87 -33 -142 -110 -142 -201 0 -68 12 -102 53 -145 103
-109 281 -88 349 42 52 98 16 228 -77 282 -52 31 -134 41 -183 22z"/>
<path d="M2492 2450 c-141 -29 -290 -180 -371 -377 -67 -164 -96 -337 -88
-527 9 -202 46 -314 138 -411 95 -101 202 -139 389 -139 136 0 206 15 293 62
56 30 137 112 166 169 80 159 93 445 31 693 -89 353 -326 578 -558 530z"/>
</g>
</svg>
