<?xml version="1.0" standalone="no"?>
<!DOCTYPE svg PUBLIC "-//W3C//DTD SVG 20010904//EN"
 "http://www.w3.org/TR/2001/REC-SVG-20010904/DTD/svg10.dtd">
<svg version="1.0" xmlns="http://www.w3.org/2000/svg"
 width="500.000000pt" height="500.000000pt" viewBox="0 0 500.000000 500.000000"
 preserveAspectRatio="xMidYMid meet">
<metadata>
Created by potrace 1.11, written by Peter Selinger 2001-2013
</metadata>
<g transform="translate(0.000000,500.000000) scale(0.100000,-0.100000)"
fill="#000000" stroke="none">
<path d="M2403 4123 c9 -2 23 -2 30 0 6 3 -1 5 -18 5 -16 0 -22 -2 -12 -5z"/>
<path d="M1950 4046 c0 -2 7 -7 16 -10 8 -3 12 -2 9 4 -6 10 -25 14 -25 6z"/>
<path d="M3670 3987 c0 -4 -6 -5 -12 -1 -7 4 -10 3 -5 -1 11 -12 57 -12 57 0
0 6 -9 11 -20 11 -11 0 -20 -4 -20 -9z"/>
<path d="M1348 3983 c6 -2 18 -2 25 0 6 3 1 5 -13 5 -14 0 -19 -2 -12 -5z"/>
<path d="M3477 3939 c7 -7 15 -10 18 -7 3 3 -2 9 -12 12 -14 6 -15 5 -6 -5z"/>
<path d="M4630 3816 c0 -2 8 -10 18 -17 15 -13 16 -12 3 4 -13 16 -21 21 -21
13z"/>
<path d="M350 3800 c-8 -5 -13 -10 -10 -11 3 0 13 -2 22 -4 10 -2 21 2 25 7 3
6 1 8 -5 4 -5 -3 -12 -2 -14 4 -2 6 -8 6 -18 0z"/>
<path d="M1078 3680 c-37 -5 -84 -14 -103 -20 -20 -7 -43 -9 -51 -6 -8 3 -13
2 -9 -3 5 -10 -50 -27 -74 -22 -7 1 -10 -2 -7 -7 3 -5 -14 -19 -39 -32 -24
-12 -53 -31 -65 -42 -11 -10 -20 -16 -20 -12 0 4 -9 -4 -21 -17 -74 -84 -91
-103 -85 -91 10 18 1 15 -15 -5 -10 -11 -10 -14 -1 -9 16 9 15 -4 -2 -26 -10
-14 -15 -15 -26 -5 -10 10 -10 8 -1 -11 13 -24 6 -46 -10 -36 -5 3 -8 2 -7 -3
5 -18 -14 -86 -21 -75 -4 7 -8 -1 -8 -20 -1 -18 -5 -83 -10 -144 -5 -66 -5
-146 0 -195 5 -46 9 -96 9 -111 1 -15 5 -25 9 -22 5 3 9 -3 9 -13 0 -11 5 -24
12 -31 7 -7 9 -12 5 -12 -4 0 2 -17 12 -37 11 -21 26 -54 35 -74 9 -20 39 -61
66 -91 27 -31 46 -59 42 -63 -4 -5 -2 -5 5 -2 6 4 20 -3 30 -16 10 -13 27 -29
38 -36 16 -10 17 -11 2 -7 -11 3 -15 2 -12 -4 16 -26 30 -7 32 46 1 31 7 61
12 68 6 7 9 15 6 18 -8 8 44 230 58 244 4 4 7 17 7 28 0 36 21 97 30 91 6 -3
7 1 4 9 -3 8 1 29 9 46 9 16 18 43 22 60 4 17 11 28 16 24 5 -3 9 -2 8 3 -4
25 2 43 13 37 8 -5 9 -2 4 11 -4 11 0 25 10 36 10 11 14 19 10 19 -5 0 1 16
13 36 12 19 21 41 21 49 0 8 5 17 12 21 7 5 8 3 3 -6 -5 -9 -4 -11 4 -6 6 4 9
11 6 16 -3 5 13 39 36 77 67 111 91 143 102 136 6 -4 8 0 4 10 -3 10 -2 17 3
17 6 0 10 6 10 14 0 8 12 24 26 35 15 12 23 21 19 21 -4 0 -2 6 4 14 7 8 21
13 33 11 16 -4 18 -2 8 10 -10 12 -5 23 29 57 35 37 38 44 23 50 -23 9 -199 7
-284 -2z"/>
<path d="M3645 3682 c-11 -4 -21 -14 -23 -22 -2 -8 -1 -12 3 -8 9 9 95 -82 95
-101 0 -8 3 -11 7 -8 9 10 43 -44 36 -56 -3 -6 -1 -7 5 -3 13 8 64 -63 55 -78
-3 -6 -2 -8 2 -3 5 4 21 -12 36 -35 19 -32 24 -48 17 -61 -5 -9 -5 -17 -1 -16
15 4 43 -13 37 -22 -3 -5 -1 -9 5 -9 14 0 44 -67 38 -84 -4 -9 2 -16 15 -19
14 -4 19 -11 14 -22 -3 -9 -2 -13 4 -10 6 3 10 -3 10 -14 0 -11 7 -26 15 -35
8 -8 15 -19 15 -24 0 -5 8 -27 17 -48 9 -22 15 -47 14 -58 -2 -11 2 -16 8 -12
10 6 16 -13 12 -36 0 -5 3 -8 8 -8 5 0 12 -15 16 -32 3 -18 16 -64 28 -103 11
-38 20 -78 18 -89 -1 -10 2 -22 7 -25 5 -3 12 -24 14 -47 3 -23 8 -45 11 -50
3 -5 8 -35 11 -66 7 -65 14 -88 28 -88 5 0 6 -6 2 -12 -4 -8 -3 -10 2 -5 5 5
9 12 9 15 0 15 89 101 98 95 6 -3 7 -1 4 4 -8 13 17 36 28 25 5 -4 5 -1 1 6
-4 6 1 24 11 40 10 15 25 39 32 54 8 15 17 25 22 23 4 -3 6 3 5 12 -3 17 0 25
24 73 6 11 10 27 10 35 0 10 5 13 11 9 8 -5 10 2 7 21 -3 15 -2 42 3 58 5 17
9 94 9 171 1 162 -16 243 -76 353 -19 35 -30 62 -25 59 5 -4 13 -1 17 6 4 7 4
10 -1 6 -11 -10 -47 11 -40 23 4 5 1 8 -7 7 -7 -2 -12 4 -10 12 2 8 0 12 -4 8
-10 -11 -35 12 -27 25 3 5 2 7 -4 4 -12 -8 -65 38 -55 48 4 5 1 5 -6 1 -8 -5
-22 0 -35 12 -12 11 -32 23 -45 27 -12 3 -19 11 -16 17 5 7 2 8 -5 3 -7 -4
-23 -3 -34 3 -92 45 -402 79 -482 54z"/>
<path d="M122 3225 c0 -16 2 -22 5 -12 2 9 2 23 0 30 -3 6 -5 -1 -5 -18z"/>
<path d="M1011 3084 c0 -11 3 -14 6 -6 3 7 2 16 -1 19 -3 4 -6 -2 -5 -13z"/>
<path d="M951 2964 c0 -11 3 -14 6 -6 3 7 2 16 -1 19 -3 4 -6 -2 -5 -13z"/>
<path d="M4512 2950 c0 -14 2 -19 5 -12 2 6 2 18 0 25 -3 6 -5 1 -5 -13z"/>
<path d="M1816 2599 c-10 -6 -35 -8 -57 -5 -21 3 -39 2 -39 -3 0 -5 -13 -11
-28 -14 -31 -6 -112 -81 -112 -104 0 -8 -4 -12 -9 -9 -4 3 -9 -20 -9 -52 -2
-59 18 -134 37 -140 6 -2 11 -10 11 -18 0 -9 5 -12 10 -9 6 3 10 2 10 -3 0 -5
15 -15 33 -23 17 -7 35 -18 39 -23 7 -12 82 -13 110 -1 9 3 22 8 30 9 41 7 94
53 104 91 3 14 16 32 27 40 12 8 16 15 9 15 -16 0 -16 72 1 89 10 11 9 12 -2
6 -11 -6 -13 -4 -8 9 4 9 3 14 -2 11 -5 -3 -12 4 -16 15 -3 11 -11 20 -17 20
-5 0 -8 7 -4 15 3 8 0 14 -7 12 -7 -1 -11 6 -11 15 1 10 -2 15 -7 12 -12 -7
-51 15 -44 26 3 5 0 12 -6 16 -8 4 -9 3 -5 -4 5 -8 -1 -12 -15 -12 -18 0 -19
2 -9 15 15 18 12 18 -14 4z"/>
<path d="M1666 2588 c3 -5 10 -6 15 -3 13 9 11 12 -6 12 -8 0 -12 -4 -9 -9z"/>
<path d="M3130 2590 c13 -9 11 -13 -10 -30 -14 -11 -30 -18 -37 -15 -7 2 -10
-2 -7 -9 3 -7 -2 -20 -10 -29 -26 -26 -37 -68 -35 -132 2 -47 8 -65 26 -85 13
-14 21 -30 19 -37 -5 -13 9 -26 32 -29 7 -2 36 -10 65 -19 106 -34 107 -34
107 -19 0 8 8 14 18 14 10 0 23 5 30 12 9 9 12 9 12 -2 0 -8 6 -4 13 10 7 14
18 25 24 25 7 0 18 6 25 14 10 11 10 12 0 7 -7 -4 -1 10 13 30 23 34 25 46 23
110 -3 57 -8 76 -24 91 -11 10 -13 14 -5 8 14 -9 14 -7 0 15 -9 14 -23 25 -30
25 -8 0 -17 5 -21 10 -4 6 -11 10 -15 11 -4 0 -15 3 -23 6 -43 17 -58 20 -90
23 -19 1 -43 -3 -52 -9 -13 -8 -21 -7 -30 2 -6 6 -17 12 -22 12 -6 0 -4 -5 4
-10z"/>
<path d="M3290 2596 c0 -2 15 -6 34 -8 19 -2 32 0 30 4 -5 8 -64 12 -64 4z"/>
<path d="M2540 2552 c0 -7 -21 -9 -62 -6 -44 3 -58 1 -48 -6 12 -8 9 -10 -12
-10 -15 0 -54 -16 -88 -36 -33 -19 -65 -32 -70 -29 -6 3 -7 -1 -4 -9 4 -10 1
-16 -9 -16 -9 0 -19 -5 -23 -12 -5 -7 -2 -9 7 -4 8 4 5 1 -5 -8 -10 -8 -23
-13 -29 -9 -6 3 -7 1 -3 -5 4 -7 -2 -22 -14 -34 -18 -20 -20 -20 -14 -4 5 12
4 17 -3 13 -15 -10 -24 -48 -10 -42 7 3 2 -2 -10 -11 -13 -9 -23 -22 -23 -28
0 -6 5 -4 10 4 6 9 10 10 10 3 0 -7 -8 -16 -17 -22 -10 -5 -16 -12 -14 -16 5
-10 -21 -65 -31 -65 -5 0 -6 -5 -3 -10 4 -6 1 -18 -6 -26 -7 -8 -14 -27 -15
-42 -2 -14 -13 -35 -26 -45 -13 -10 -18 -16 -11 -13 7 4 11 -1 10 -14 -1 -13
-6 -19 -16 -15 -10 4 -11 2 -3 -7 5 -7 8 -26 4 -43 -8 -49 -11 -419 -3 -430 5
-5 17 -35 27 -65 10 -30 25 -61 31 -68 7 -7 13 -20 13 -27 0 -7 11 -22 25 -33
13 -11 22 -22 19 -24 -12 -13 -11 -45 2 -45 10 0 11 4 3 13 -6 8 -6 14 0 18 5
4 12 -3 16 -14 4 -11 11 -18 16 -14 12 7 41 -15 34 -26 -3 -5 0 -12 6 -16 8
-4 9 -3 5 4 -10 16 27 10 48 -7 9 -7 16 -10 16 -5 0 4 5 3 11 -3 6 -6 18 -9
27 -6 9 4 13 2 9 -4 -4 -6 -1 -11 6 -10 57 2 140 -5 130 -11 -6 -4 13 -7 42
-7 29 0 51 3 49 6 -2 4 13 6 34 6 20 0 62 6 92 13 30 8 58 15 63 16 4 1 10 3
15 4 18 7 38 5 45 -5 5 -6 7 -4 4 5 -2 8 -10 14 -16 12 -7 -1 -9 2 -6 8 4 6
13 9 21 6 8 -3 17 1 21 10 3 8 12 13 19 10 7 -3 16 0 20 6 4 7 3 8 -4 4 -7 -4
-12 -2 -12 3 0 10 14 15 32 12 4 0 5 5 2 13 -4 10 2 13 21 10 15 -1 24 0 21 3
-3 4 0 13 6 22 7 9 2 7 -11 -4 l-24 -20 18 33 c11 17 23 32 28 32 4 0 5 5 2
10 -3 6 0 13 8 16 7 2 14 10 14 17 1 7 10 48 22 92 14 57 21 116 22 205 1 73
5 117 10 105 7 -17 7 -16 6 7 -1 15 -5 24 -9 22 -4 -3 -8 -2 -8 3 0 9 -17 114
-24 150 -3 12 -10 31 -16 42 -6 12 -8 21 -4 21 3 0 0 8 -7 17 -8 9 -9 14 -4
11 6 -4 11 2 11 12 0 15 -3 16 -14 8 -7 -6 -12 -7 -11 -2 4 17 -36 107 -61
138 -13 17 -13 18 0 11 8 -4 2 7 -15 25 -16 18 -25 30 -19 27 7 -4 17 0 24 8
10 12 8 13 -12 10 -19 -4 -36 8 -83 57 -32 35 -63 63 -69 63 -6 0 -28 9 -48
20 -37 18 -49 35 -26 35 6 0 9 3 6 6 -3 3 -15 0 -26 -7 -18 -11 -24 -10 -41 5
-12 11 -21 14 -21 8z"/>
<path d="M2341 2524 c0 -11 3 -14 6 -6 3 7 2 16 -1 19 -3 4 -6 -2 -5 -13z"/>
<path d="M644 2491 c0 -11 5 -17 13 -14 10 4 11 9 2 19 -15 18 -15 18 -15 -5z"/>
<path d="M811 2424 c0 -11 3 -14 6 -6 3 7 2 16 -1 19 -3 4 -6 -2 -5 -13z"/>
<path d="M1981 2404 c0 -11 3 -14 6 -6 3 7 2 16 -1 19 -3 4 -6 -2 -5 -13z"/>
<path d="M2790 2406 c0 -2 8 -10 18 -17 15 -13 16 -12 3 4 -13 16 -21 21 -21
13z"/>
<path d="M736 2373 c-6 -14 -5 -15 5 -6 7 7 10 15 7 18 -3 3 -9 -2 -12 -12z"/>
<path d="M3451 2344 c0 -11 3 -14 6 -6 3 7 2 16 -1 19 -3 4 -6 -2 -5 -13z"/>
<path d="M4201 2284 c0 -11 3 -14 6 -6 3 7 2 16 -1 19 -3 4 -6 -2 -5 -13z"/>
<path d="M3290 2180 c0 -5 7 -7 15 -4 8 4 15 8 15 10 0 2 -7 4 -15 4 -8 0 -15
-4 -15 -10z"/>
<path d="M4200 2179 c0 -5 5 -7 10 -4 6 3 10 8 10 11 0 2 -4 4 -10 4 -5 0 -10
-5 -10 -11z"/>
<path d="M4200 2130 c0 -5 5 -10 10 -10 6 0 10 5 10 10 0 6 -4 10 -10 10 -5 0
-10 -4 -10 -10z"/>
<path d="M814 1825 c-3 -8 -4 -20 -2 -27 3 -7 7 -1 10 15 6 29 1 36 -8 12z"/>
<path d="M3012 1755 c0 -16 2 -22 5 -12 2 9 2 23 0 30 -3 6 -5 -1 -5 -18z"/>
<path d="M4151 1764 c0 -11 3 -14 6 -6 3 7 2 16 -1 19 -3 4 -6 -2 -5 -13z"/>
<path d="M3011 1544 c0 -11 3 -14 6 -6 3 7 2 16 -1 19 -3 4 -6 -2 -5 -13z"/>
<path d="M2010 1501 c0 -6 4 -13 10 -16 6 -3 7 1 4 9 -7 18 -14 21 -14 7z"/>
<path d="M2972 1440 c0 -14 2 -19 5 -12 2 6 2 18 0 25 -3 6 -5 1 -5 -13z"/>
<path d="M2062 1390 c0 -14 2 -19 5 -12 2 6 2 18 0 25 -3 6 -5 1 -5 -13z"/>
<path d="M1145 1331 c-6 -11 13 -26 22 -17 4 3 1 6 -6 6 -7 0 -9 5 -6 10 3 6
4 10 1 10 -3 0 -7 -4 -11 -9z"/>
<path d="M1186 1278 c3 -4 9 -8 15 -8 5 0 9 4 9 8 0 5 -7 9 -15 9 -8 0 -12 -4
-9 -9z"/>
<path d="M2980 969 c0 -5 5 -7 10 -4 6 3 10 8 10 11 0 2 -4 4 -10 4 -5 0 -10
-5 -10 -11z"/>
</g>
</svg>
